<?xml version="1.0" encoding="UTF-8"?>
<svg id="Capa_2" data-name="Capa 2" xmlns="http://www.w3.org/2000/svg" xmlns:xlink="http://www.w3.org/1999/xlink" viewBox="0 0 948.73 552.92">
  <defs>
    <style>
      .cls-1 {
        fill: none;
      }

      .cls-2 {
        fill: #414f66;
      }

      .cls-3 {
        clip-path: url(#clippath);
      }
    </style>
    <clipPath id="clippath">
      <rect class="cls-1" x="135.57" y="483.09" width="670.74" height="63.21"/>
    </clipPath>
  </defs>
  <g id="Capa_1-2" data-name="Capa 1">
    <g>
      <path class="cls-2" d="M0,516.36c42.59-2.96,85.19-5.93,128.1-8.92v18.61c-42.86-2.96-85.46-5.9-128.06-8.85-.01-.28-.03-.57-.04-.85Z"/>
      <path class="cls-2" d="M822.5,507.48c42.31,2.91,84.22,5.79,126.14,8.66.03.35.06.71.09,1.06-41.99,2.93-83.98,5.86-126.23,8.81v-18.53Z"/>
      <g class="cls-3">
        <path class="cls-2" d="M181.56,483.13h-14.93l-27.44,63.21h14.93l6.6-12.85h24.66l6.6,12.85h14.59l-25.01-63.21ZM164.89,520.64l7.99-19.1,7.99,19.1h-15.98Z"/>
        <path class="cls-2" d="M466.82,483.13h-14.93l-27.44,63.21h14.93l6.6-12.85h24.66l6.6,12.85h14.59l-25.01-63.21ZM450.15,520.64l7.99-19.1,7.99,19.1h-15.98Z"/>
        <path class="cls-2" d="M559.2,547h-13.66l-28.29-37.27v37.27h-15.7v-64.45h15.7l26.26,37.37v-37.37h15.7v64.45Z"/>
        <g>
          <path class="cls-2" d="M646.68,483.07v13.09h-18.56v50.18h-13.97v-50.18h-18.56v-13.09h51.09Z"/>
          <path class="cls-2" d="M699.1,552.92l-18.22-27.14h-8.57v27.14h-13.97v-69.65h26.14c5.39,0,9.98.95,13.77,2.84,3.79,1.9,6.64,4.46,8.53,7.68,1.9,3.23,2.85,6.83,2.85,10.83,0,4.59-1.33,8.73-3.99,12.42-2.66,3.69-8.32,6.07-8.32,6.07l19.62,29.81h-17.83ZM672.31,515.3h11.67c3.79,0,6.62-.91,8.48-2.74,1.86-1.83,2.79-4.37,2.79-7.63s-.93-5.67-2.79-7.43c-1.86-1.76-4.69-2.64-8.48-2.64h-11.67v20.46Z"/>
          <path class="cls-2" d="M738.47,483.27v69.65h-13.97v-69.65h13.97Z"/>
          <path class="cls-2" d="M802.38,515.3c-1.76,3.26-4.53,5.89-8.28,7.88-3.76,2-8.5,2.99-14.22,2.99h-11.67v26.74h-13.97v-69.65h25.64c5.39,0,9.98.93,13.77,2.79,3.79,1.86,6.64,4.43,8.53,7.68,1.9,3.26,2.85,6.95,2.85,11.08,0,3.73-.88,7.22-2.64,10.48ZM787.86,512.26c1.86-1.76,2.79-4.24,2.79-7.43,0-6.79-3.79-10.18-11.38-10.18h-11.08v20.26h11.08c3.86,0,6.72-.88,8.58-2.64Z"/>
        </g>
        <path class="cls-2" d="M402.74,481h19.36l-27.58,29.29,27.07,39.1h-20.47l-17.91-28.81-6.13,5.98v22.84h-14.5v-68.38h14.5l-.07,27.33"/>
        <path class="cls-2" d="M349.38,476.97v44.25c0,4.71-1.04,8.96-3.11,12.75-2.07,3.79-5.21,6.79-9.4,9-4.19,2.21-9.47,3.32-15.83,3.32-9.04,0-15.93-2.31-20.67-6.92-4.74-4.62-7.11-10.73-7.11-18.34v-44.06h14.45v41.86c0,5.64,1.15,9.6,3.46,11.88,2.31,2.28,5.72,3.41,10.24,3.41,3.18,0,5.76-.55,7.74-1.64s3.44-2.78,4.37-5.05c.94-2.28,1.4-5.18,1.4-8.7v-41.77h14.45Z"/>
        <polygon class="cls-2" points="214.69 546.34 214.69 483.13 230.32 483.13 246.82 510.05 263.31 483.13 279.12 483.13 279.12 546.34 264.88 546.34 264.88 506.92 263.49 506.92 246.9 533.14 230.15 506.57 229.1 506.92 229.1 546.34 214.69 546.34"/>
      </g>
    </g>
    <g>
      <path class="cls-2" d="M62.74,420.53c42.91-9.98,77.38-37.11,115.91-55.88,3.21-1.56,5.92-4.13,8.87-6.23,0,0,8.35-9.29-.93-1.77-10.36,6.5-21.13,12.9-33.12,14.95,0,0-2.25.12-2.59-.25,6.88-9.54,15.35-20.96,22.23-30.51,0,0,.21-.19.21-.19,2.79-2.66,5.58-5.31,8.37-7.97,3.1-2.99,6.21-5.98,9.31-8.96,0,0,0,0,0,0,2.09-1.42,4.22-2.77,6.24-4.27,2.45-1.82,4.65-4.03,7.24-5.59,7.88-4.73,15.81-9.4,23.88-13.78,17.59-9.55,26.58-25.7,33.79-43.3,3.42-7.88,6.84-15.76,10.27-23.64.33-1.14-4.35,2.14.98-3.43,14.36-14.99,1.72,1.72,2.36,7.59-2.81,9.7-6.05,18.05-5.52,33.46-2.37,3.65-3.99,8.28-7.25,10.75-6.44,4.86-10,11.39-13.54,18.16-1.94,2.28-3.89,4.56-5.83,6.84,0,0-2.08,3.14-1.64,3.47,2.15-2.27,7.25-7.01,9.39-9.28,0,0,.13-.21.13-.21l.11-.29s.15-.29.15-.29c.22-.5.45-.99.67-1.49,1.11-1.08,2.22-2.15,3.33-3.23,2.32-2.89,4.19-6.38,7.06-8.54,6.57-4.94,10.38-11.37,12.41-19.12,4.38-32.54,11.53-27.95,9.11-39.53,0,0-2.69-4.24,2.44-.22,7.33,5.76,14.67,11.53,22,17.29-.77-8.01,2.27-17.03-6.61-22.7,2.13-2.13,3.55-3.89,5.29-5.25,8.16-6.41,14.98-13.91,19.57-23.31,3.06-6.27,5.52-12.94,9.37-18.68,4.9-7.29,10.94-13.81,16.49-20.66,0,0,1.22-2.71,1.87-2.38-.23,4.78-.37,12.95-.6,17.73,3.28-3.76,6.03-7.49,7.75-11.64,2.5-6.04,5.01-11.73,10.23-16.19,3.13-2.67,5.5-6.56,7.32-10.33,2.89-5.96,5.16-12.24,7.43-18.48,1.25-3.42,2.98-4.01,6.2-2.5,6.31,2.95,12.73,5.67,19.15,8.38,1.13.47,2.48.4,4.05.63.11-1.9.63-3.43.18-4.55-2.06-5.09.89-8.69,3.22-12.62,3.41-5.76,6.57-11.66,9.84-17.51-1.77.11-3.12.53-3.93,1.43-3.16,3.55-6,7.4-9.27,10.84-2.05,2.16-4.52,4.04-7.11,5.51-.88.5-3-.34-3.96-1.22-.49-.45,0-2.54.61-3.53,3.14-5.07,6.31-10.13,9.75-15,13.42-19.03,26.96-37.98,40.43-56.97,3.24-4.57,6.4-9.19,10-14.35.82,1.62,1.3,2.18,1.39,2.79,2.83,20.95,5.73,41.89,8.36,62.87.76,6.07.02,12.42,3.88,17.76,2.98,4.14,5.98,8.28,9.18,12.24,5.16,6.4,11.19,14.31,16.45,20.62-.38.37-1.6-.26-1.82-.53-10.64-9.69-21.27-19.38-31.95-29.1-1.24,1.84-2.26,3.84-3.72,5.44-11.33,12.46-22.71,24.89-34.16,37.23-4.93,5.31-11.27,9.71-14.88,15.76-6.05,10.14-10.45,21.27-15.45,32.02-.48,1.04-.29,2.39-.4,3.59,0,0-.27,1.99,0,2.04,3.16-6.12,7.14-14.12,10.29-20.24,0,0,.69-2.33,1.2-2.12,0,1.27.34,5.31.31,6.58-.09,3.59-.38,7.18-.19,10.75.06,1.22.28,4.19.99,5.38.91-1.07,3.46-3.83,3.66-5.02.68-4.03,1.11-8.13,1.22-12.22.1-3.82-.33-7.65-.53-11.48,0,0,0-1.29.62-1.84,7.1-6.3,14.68-12.15,21.13-19.06,5.05-5.4,8.64-12.15,12.98-18.22,4.41-6.17,8.95-12.24,13.31-18.19,5.55,10.73,10.47,21.2,16.24,31.17,6.28,10.84,13.32,21.25,20.14,31.78.89,1.37,2.3,2.55,3.73,3.38,3.81,2.2,7.76,4.16,11.66,6.21.26.27.51.54.77.81,2.38,3.51,4.77,7.02,7.15,10.53.24-.5.77-1.13.79-1.53-.02.41-.55,1.03-.79,1.53,3.08,5.63,7.11,10.96,9.02,16.96,3.21,10.03,5.62,20.27,11.61,29.17.56.83.65,1.97,1.33,4.15-8.97-5.66-15.87-11.76-19.95-20.12-3.94-8.07-6.76-16.7-10.03-25.1-1.41-3.62-3.16-6.78-7.42-7.7-7.68-1.67-11.41-7.06-13.99-14.1-4.06-11.04-10.96-20.25-20.36-27.38-2.33-1.76-5.25-1.74-7.9-3.08v-1c-6.77,11.41-13.55,22.81-19.91,33.53,1.67-1.31,4.2-2.77,6.04-4.84,4.86-5.44,9.35-11.2,14.16-16.68.94-1.07,1.11-2.61,2.5-3.29,2.26,3.89,6.21,8.92,8.37,12.87,3.69,6.74,4.02,13.44-.62,19.95-3.36,2.73-3.13,5.29.22,7.89,1.34,1.04,2.37,2.45,3.66,3.55,10.15,8.66,17.7,18.56,18.04,32.8.07,3.17,2.53,6.6,4.63,9.33,3.32,4.31,7.46,7.98,10.88,12.21,2.47,3.06,4.34,6.6,6.49,9.93-1.4,1.01-3.93,1.95-4,3.06-.48,6.8-1.84,14-.24,20.41,5.21,20.91,14.32,39.8,32.91,52.47,1.62,1.11,3.73,1.5,5.62,2.23-8.66-16.15-14.31-30.88-12.22-36.94,15.5,16.84,30.58,33.21,45.65,49.58-11.69-19.14-20.43-39.35-27.11-60.67,6.26,4.93,12.05,10.13,17.46,15.71,9.31,9.6,19.12,18.42,30.82,25.19,4.4,2.55,8.19,6.68,11.32,10.81,11.32,14.91,22.12,30.22,33.4,45.16,2.94,3.9,6.91,7.02,10.41,10.49,0,0,1.77,2.99,2.22,2.68-2.67-5.84-6.77-14.92-9.44-20.77,12.62,7.1,23.65,15.13,35.49,21.68,9.42,5.21,19.6,9.4,29.89,12.6,11.1,3.46,22.67,5.5,34.13,7.69,12.45,2.38,25.01,4.24,37.52,6.32-18.94-6-36.96-14-52.8-25.73-15.59-11.55-29.99-24.71-44.91-37.17,0,0-2.27-2.36-1.75-3.11,13.72,7.85,29.96,17.74,43.79,25.4,13.69,7.59,27.36,15.29,43.78,20.31-15.9-11.77-33.16-36.61-34.81-49.58,16.14,17.56,35.73,30.11,55.47,42.51l-7.34-8.43c2.64.63,5.29,1.26,9.56,2.27-1.54-2.53-3.3-3.89-4.54-4.86-2.09-1.65,9.03,1.46,12.85,2.05,12.53,6.11,23.78,12.73,36.9,18.74,5.43,2.49,11.01,4.64,17.38,7.31-2.15-2.06-3.4-3.47-4.85-4.61-14.39-11.34-29.4-21.99-43.08-34.14-13.22-11.75-25.79-24.42-37.34-37.81-13.77-15.97-22.47-35.19-30.82-54.45-.7-1.6-2.55-3.6-4.08-3.8-8.08-1.08-14.92-4.81-19.58-11.02-8.35-11.11-15.89-22.85-23.57-34.45-3.04-4.59-5.59-9.14-12.11-9.63-2.38-.18-5.25-2.06-6.78-4.03-6.35-8.18-12.43-16.57-18.29-25.11-5.17-7.52-9.92-15.33-15.47-23.96-10.32,8.39-20.24,16.44-31.31,25.45-13.97-17.89-27.83-35.65-41.76-53.49-.82.52-2.16,1.35-3.62,2.26-13.21-12.72-20.63-27.66-21.66-45.83-.22-3.84-1.21-8.83-3.78-11.16-14.22-12.91-24.6-28.51-33.55-45.2-2.15-4-5.42-5.46-9.49-6.86-4.83-1.66-10.2-3.73-13.57-7.29-8.64-9.14-16.44-19.1-24.32-28.93-5.38-6.72-5.17-6.86-10.04-.13-14.16,19.55-28.2,39.2-42.57,58.6-7.89,10.64-16.28,20.93-24.68,31.17-1.19,1.45-4.19,2.91-5.62,2.38-5.61-2.09-7.82.33-9.03,5.3-.73,2.98-1.56,5.99-2.77,8.8-2.89,6.67-5.77,13.38-9.17,19.79-2.19,4.13-5.3,7.44-11.06,6.3-1.33-.26-3.49,1.6-4.65,2.99-3.7,4.43-7.21,9.03-10.6,13.71-5.19,7.16-11.4,13.89-15.06,21.78-6.83,14.71-15.91,27.19-28.47,37.44-5.22,4.26-10.04,6.53-16.45,3.13-4.2-2.23-8.61-4.07-12.81-6.3-2.26-1.2-4.08-1.76-5.53.98-6.04,11.33-15.23,19.99-24.09,29.02-3.94,4.02-6.93,9.13-9.71,14.11-4.8,8.59-8.65,17.74-13.77,26.12-3.23,5.3-7.96,9.7-12.16,14.39-11.67,13.05-23.42,26.03-35.11,39.01-6.75-5.06-8.07-4.98-13.51.57-.24.24-.39.57-.63.81-11.2,11.24-22.39,22.49-33.62,33.7-2.53,2.52-5.19,4.91-7.79,7.36,0,0-2.43,2.3-2.13,2.61,9.3-5.79,21.61-13.27,30.92-19.06,8.02-5.44,3.9.67,3.9.67-24.41,26.04-54.4,42.71-83.81,60.18ZM746.58,292c.76.17,1.52,1.19,1.92,2,4.15,8.18,8.25,16.39,12.32,24.62l2.1,5.88c-5.36-5.64-12.5-12.57-18.2-18.57-1.41,1.09-2.59,1.99-4.36,3.35-2.56-6.83-4.96-13.23-7.43-19.84,4.93.9,9.32,1.62,13.65,2.56ZM653,307.72c7.22,10.57,14.44,21.14,21.66,31.71-9.42-8.85-17.36-19.02-21.66-31.71ZM668.61,254.17c3.37-.66,6.73-1.33,10.1-1.99,0-.46-.02-.91-.02-1.37-.04-.62-.08-1.24-.12-1.86-.56-3.75-1.13-7.51-1.87-12.44,6.69,5.64,14.43,8.19,17.33,16.12.36,1.2.73,2.39,1.09,3.59.05.35.1.7.14,1.05.04.61.08,1.22.12,1.82-.02.45-.03.9-.05,1.35-.34,6.39-.68,12.77-.92,17.3-4.48-7.28-10.09-16.42-15.71-25.55-3.37.66-6.73,1.32-10.1,1.99-.93,3.02-1.71-2.22-2.27-4.91-.94-11.05-1.87-22.1-2.81-33.14,5.77,12.2,4.08,25.29,5.08,38.05ZM649.37,189.41c9.81,21.07,10.89,42.93,11.3,64.95.05,2.51,1.54,4.99,2.36,7.48h0c2.67,1.71,5.35,3.41,8.01,5.13,10.55,6.82,16.87,16.4,18.82,28.84,1.74,11.13,8,20.02,14.37,28.84,1.16,1.61,2.33,3.22,3.49,4.82,0,0,.96.85,2.53,3.29-3.76-3.17-11.24-8.52-15.01-11.69l-1.8.02c-2.13-3.15-4.26-6.29-6.39-9.44-5.8-10.46-11.52-20.97-17.45-31.36-1.15-2.01-2.8-4.26-4.79-5.16-10.26-4.68-14.59-13.73-18.27-23.43-1-2.63-2.36-5.13-3.55-7.69h0c-1.49-6.44-4.49-11.51-11.07-14.18-5.43-2.2-10.55-5.15-16.35-8.03,11.03-10.6,20.94-23.1,33.8-32.39ZM563.65,199.21c16.67,14.14,30.31,30.65,38.62,51.32.24.46.49.92.73,1.37l.06.24c.4,1.3.97,2.58,1.18,3.92,1.24,7.92,5.64,12.05,13.79,12.77,1.76.16,4.14,2.82,4.77,4.79,3.37,10.64,6.28,21.42,9.56,32.92-2-2.15-3.96-3.85-5.42-5.9-6.9-9.68-14.08-18.94-22.62-27.46-7.77-7.75-12.63-18.39-18.93-27.65-5.14-7.56-10.51-14.97-15.78-22.45h0c-2.45-7.67-4.9-15.34-7.35-23,.46-.29.92-.58,1.38-.86ZM591.01,301.64c-.66.39-3.18-1.59-3.18-1.59-8.52-14.84-17.05-29.68-25.57-44.52,15.96,10.41,21.88,30.28,28.75,46.11ZM559.76,160.48c-5.21-7.48-12.24-17.38-17.44-24.86-.54.23.2,3.11.2,3.11.46,3.15.91,6.29,1.37,9.44-11.45-10.38-19.53-22.23-18.98-38.23,5.73,2.93,35.09,43.58,34.86,50.55ZM511.95,59.35c.37,6,1.5,12.09,3.32,17.82,2.2,6.93,8.09,11.03,13.99,14.81,3.57,2.29,7.22,4.45,10.69,6.87,4.35,3.03,6.57,7.18,5.72,14.09-9.32-11.57-23.61-16.9-29.99-29.77-6.15-12.4-10.58-25.65-16.01-39.12,8.2.81,11.86,8.55,12.29,15.3ZM245.26,245.24c6.42-6.24,13.01-12.31,19.73-18.65.48,9.09-3.66,16.87-6.94,24.88h0c-.39.26-.72,1.31-1.18.81.04-1.79.07-4.05.11-5.61.28-2.28.15-4.45-3.35-.35-6.86,7.35-13.72,14.71-20.81,22.31,2.34-8.88,5.83-16.97,12.44-23.4Z"/>
      <path class="cls-2" d="M494.33,275.9c.14,9.87,5.6,18.62,11.35,25.55,5.69,6.87,12.06,13.18,18.13,19.73-4.45-12.89-9.94-24.78-14.24-37.09-4.57-13.1-20.39-35.02-20.39-35.02-.05-.24-.18-.41-.41-.5-.19-.21-.38-.42-.56-.63,0,0-.23-.36-.23-.36-.25-.25-.49-.49-.74-.74,0,0-.37-.25-.37-.25-.23-.25-.47-.49-.7-.74,0,0-.23-.43-.23-.43-.55-.42-1.06-.66-1.61-1.08-.03.71-.39,1.25-.1,2.14.84,2.24,1.68,4.48,2.52,6.72.59,1.95.93,4.02,1.8,5.83,3.22,6.74,2.49,12.38-2.82,18.13-7.32,7.93-13.86,16.59-19.47,23.41,3.58-2.16,9.34-4.71,13.89-8.64l14.19-16.02Z"/>
      <path class="cls-2" d="M392.65,327.77c-3.39,2.37-7.09,4.4-10.13,7.17-13.89,12.63-27.32,25.78-41.45,38.14-10.55,9.23-21.48,18.15-33.04,26.05-10.14,6.93-21.38,12.25-32.12,18.3-1.91,1.08-3.71,2.36-5.63,3.42-1.79,1-3.67,1.84-5.51,2.75,52.79-18.24,94.9-50.9,127.87-95.83Z"/>
      <path class="cls-2" d="M165.25,395.33c.16.38.33.77.49,1.15,1.96-.68,4.04-1.13,5.86-2.07,6.34-3.28,12.84-6.34,18.82-10.2,9.19-5.92,17.99-12.43,26.96-18.69,0,0,.27-.16.27-.16,2.65-2.01,5.3-4.02,7.94-6.03,0,0,.26-.19.26-.19,1.62-1.3,3.24-2.6,4.87-3.91,0,0,.37-.32.37-.32.58-.24,1.16-.48,1.73-.72,0,0,.2-.29.2-.29.23-.23.47-.46.7-.7,0,0,.34-.25.34-.25,1.64-1.29,3.27-2.57,4.91-3.86,0,0,.26-.23.26-.23.94-.63,1.88-1.26,2.82-1.89,0,0,.29-.2.29-.2.44-.3.88-.61,1.31-.91,14.08-10.05,28.24-19.98,42.19-30.2,8.63-6.32,15.86-13.77,18.93-24.61.77-2.71,3.51-5.14,5.86-7.08,4.8-3.95,9.94-7.49,14.94-11.19,5.6-6.9,12.63-17.49,18.23-24.38-.54-.47-3.03,2.3-3.03,2.3-5.65,6.15-11.3,12.3-16.95,18.45-5.1,5.72-10.14,11.44-17.76,14.09-1.31.46-2.22,2.67-2.9,4.25-2.97,6.83-4.38,14.53-10.79,19.43-5.93,4.54-11.84,9.1-17.88,13.48-19.9,14.44-39.86,28.81-59.8,43.2-7.44,5.29-14.87,10.58-22.31,15.87h0s0,0,0,0c0,0,0,0,0,0h0s-.07.11-.07.11c-9.02,5.24-18.05,10.49-27.07,15.73ZM205.04,372.68h0c-.22-.08-.47-.25-.68-.3.21.04.46.21.68.3ZM198.65,377.45c.95-.59,1.89-1.17,2.83-1.76-.94.59-1.88,1.18-2.83,1.77-.79.6-1.58,1.2-2.37,1.8.79-.6,1.58-1.2,2.37-1.8ZM195.71,378.74c.13.12.26.23.38.34-.13-.11-.26-.23-.38-.34h0Z"/>
      <path class="cls-2" d="M329.52,303.4c10.11-8.66,24.99-16.63,35.05-13.91,2.73,1.12,6.3,4.36,9.03,5.48.34-.64-2.62-4.47-3.38-5.19-3.56-2.33-4.02-2.63-7.59-4.96-2.32-1.32-4.84-2.38-6.93-4q-7.33-5.68-3.6-11c.09-.13,2.26-3.88,1.55-5.59-17.11,24.4-39.58,48.54-60.71,68.47,1.52-.29,2.9-.81,3.96-1.71,10.9-9.16,21.8-18.34,32.62-27.6Z"/>
      <path class="cls-2" d="M402.81,166.3c3.58-7.64,6.08-15.72,13.24-21.42,3.62-2.89,5.62-7.82,9.01-12.8-7.05,5.03-12.92,8.96-18.45,13.32-1.72,1.36-2.83,3.77-3.67,5.92-1.9,4.92-3.14,10.12-5.22,14.96-9.63,22.45-24.9,40.8-41.67,56.54,1.79-1.04,4.67-2.37,7.18-4.2,18.43-13.46,30.08-32.08,39.57-52.32Z"/>
      <path class="cls-2" d="M403.48,233.18c-3.34,4.36-7.21,8.32-10.78,12.4,11.94-1.24,29.27-28.79,31.64-50.44.02.13,1.15-2.85.73-3.07-2.23,3.2-7.73,8.55-8.46,12.06-2.24,10.76-6.51,20.42-13.12,29.05Z"/>
      <path class="cls-2" d="M229.29,309.98c-13.56,9.95-27.12,19.91-40.68,29.86,13.32.09,40.69-19.68,40.68-29.86Z"/>
      <path class="cls-2" d="M464.11,198.96c9.95-10.98,11.26-13.78,8.86-19.99-2.03,2.61-3.95,4.93-5.69,7.37-4.41,6.18-9.42,12.08-9.97,20.17-1.14,3.32-2.83,6.56-3.31,9.98-1.26,8.94-5.52,15.96-12.39,21.58-3.54,2.9-7.08,5.8-9.84,8.06.41-.22,1.62-1.2,2.98-1.51,11.05-2.57,20.98-14.53,22.78-25.6,1.12-6.86,4.32-13.38,6.58-20.06ZM466.45,193.25h0s0,0,0,0c-.78,1.06-1.56,2.12-2.33,3.19.77-1.06,1.55-2.13,2.33-3.19-.94.87-1.88,1.74-2.82,2.62,0,0,.01.01.02.02,0,0-.01-.01-.02-.02.94-.87,1.88-1.74,2.82-2.62Z"/>
      <path class="cls-2" d="M231.54,339.89c2.23-1.99,5.69-5.76,7.74-7.92,11.08-11.71,22.13-23.45,33.07-35.29,3.33-3.6,6.42-7.45,9.28-11.43,1.42-1.98,3.38-6.8,4.36-9.09-.25-.04-2.08,2.15-2.08,2.15-17.4,19.52-34.79,39.04-52.19,58.57-1.05,1-7.59,8.67-.18,3.02Z"/>
      <path class="cls-2" d="M334.07,209.63c5.39-6.35,10.46-12.99,11.54-21.76-11.4,10.92-18.79,24.85-26.48,35.28,6.46-.09,10-7.69,14.95-13.52Z"/>
      <path class="cls-2" d="M371.58,197.75c4.28-7.42-2.89-20.3,5.05-32.96-7.28,7.02-10.85,18.26-5.05,32.96Z"/>
      <path class="cls-2" d="M617.11,343.28c3.59,13.46,12.93,22.72,22.66,31.72-6.64-11.23-12.24-23.18-22.66-31.72Z"/>
      <path class="cls-2" d="M449.1,412.76c2.13.49,4.27.99,6.4,1.48.66.32,1.32.63,1.97.95,1.38.5,2.76,1.01,4.14,1.51,0,0,.27.16.27.16.53.14,1.06.29,1.59.44l-1.59-.44c-1.78,1.13-3.42,2.72-5.37,3.33-12.57,3.96-23.39,11.1-34.18,18.36-4.43,2.98-9.09,5.63-13.65,8.43,16.82,1.09,33.09,1.2,49.35,1.04,7.49-.07,14.99-.53,22.47-1.06,12.36-.88,24.69-2.45,37.06-2.86,15.3-.5,30.63-.13,45.94-.11,1.53,0,3.07.12,4.6.22,11.43.75,22.86,1.5,34.33,2.26-12.19-3.85-25.62-8.37-37.56-12.14.12-.39,1.83-.42,1.83-.42,0,0,1.59.16,2.6.03,0,0,2.26.3,3.09.62-12.37-9.48-29.13-22.4-41.43-31.81.85-.5,3.7,2.08,7.02,3.01,7.19,3.39,14.22,6.19,21.59,9.09,16.26,6.41,32.27,14.3,49.16,18.05,26.3,5.84,53.17,9.46,79.96,12.67,20.95,2.51,42.12,3.55,63.23,4.19,23.28.7,46.59.21,69.89.23,19.66.82,44.57-.38,64.18-.78-.02-.85-13.19-1.91-13.19-1.91-13.28-.39-19.05-1.12-32.46-1.12-13.58-1.14-27.2-1.99-40.74-3.47-22.71-2.49-45.49-4.63-68.02-8.32-19.97-3.28-39.82-7.77-59.37-13.02-17.4-4.67-34.48-10.65-51.41-16.88-24.68-9.07-48.46-20.16-70.5-34.68-1.9-1.25-3.69-2.68-5.53-4.02,5.2,10.85,27.52,32.28,48.59,43.23.19.5.37,1.01.56,1.51-.39.49-.79.98-1.18,1.47-1.78-.32-3.63-.44-5.34-.99-5.93-1.94-11.82-4.03-17.72-6.06-26.25-11.03-51.6-23.62-73.53-42.25,9.7,1.65,17.22,8.96,27.79,10.56-6.94-6.62-12.92-12.66-19.25-18.31-13.45-12-27.06-23.83-40.68-35.64-1.87-1.62-4.11-2.95-6.38-3.97-8.19-3.68-16.71-6.71-24.65-10.86-8.88-4.64-17.22-10.31-25.93-15.31-1.21-.7-3.73-.78-4.7.01-14.16,11.63-27.61,24.21-42.33,35.07-22.55,16.62-45.74,32.38-69.04,47.95-27.12,18.12-55.89,33.42-86.78,43.91-24.63,8.37-49.91,14.83-74.96,21.94-6.02,1.71-12.25,2.67-18.38,3.97,1.03.54,2.07,1.08,3.1,1.62,11.19-1.69,22.49-2.87,33.56-5.19,22.49-4.71,44.85-10.03,67.26-15.1,18.96-3.39,37.14-9.43,55.02-16.79-1.78,6.77-8.91,6.42-12.67,10.34,15.22,1.09,74.21-35.39,80.07-49.83-3.21,1.06-9.36,2.66-12.28,3.63-.26-.44,2.46-1.95,2.46-1.95,1.25-1.11,2.42-2.34,3.77-3.31,13.09-9.45,26.49-18.48,39.22-28.38,10.37-8.06,19.38-17.63,26-29.19,0,0,.21-.15.21-.15.94-1.3,1.89-2.6,2.83-3.91.19-.07.35-.19.46-.36.38.03.77.06,1.15.09.12.17.28.29.48.34-.18,1.43-.36,2.87-.54,4.3-.21,4.35-2.13,9.68-.31,12.88,5.76,10.14,1.58,19.98.72,29.89-.2,2.33-2.35,4.89-4.27,6.58-5.69,5.04-11.72,9.7-17.61,14.51l-.13.28c.04-.09.08-.18.13-.28-22.62,21.63-50.48,35.75-76.17,53.14,12.24-3.58,24.45-7.11,35.88-12.33,15.11-6.91,29.73-14.93,44.35-22.88,10.19-5.54,21.24-9.95,28.68-19.65.63-.82,1.36-2.28,2.82-2.45,0,0,1.48,1.87,1.48,1.87,5.7,5.91,5.85,9.99.3,16.12-2.4,2.65-5.19,4.95-7.69,7.52-1.35,1.39-2.46,3.01-4.03,4.98,16.71-1.41,32.55-5.55,48.6-.64-1.7,1.35-3.49,1.95-5.32,2.18-7.27.93-14.62,1.54-20.19,7.21,0,0-.39.24-.39.24-1.01.57-2.01,1.14-3.02,1.7-.41.28-.82.56-1.23.85-14.03,5.99-28.04,12.04-42.11,17.94-5.15,2.16-10.45,3.95-15.69,5.9-5.46,2.35.4,1.24.4,1.24,26.08-5.76,53.11-7.03,77.49-16.15,1.63-.67-.09-2.84.65-5.2.09-1.06-2.58-1.8-4.04-2.82.5-.25.94-.28,1.68-.16,2.23.64,4.46,1.29,6.69,1.93M457.57,350.41c-6.82-7.18-16.06-17.23-22.88-24.41,10.14,3.73,16.03,11.86,21.8,20.13,0,0,1.53,3.81,1.08,4.28ZM471.02,335.35c-3.82-4.21-8.8-6.35-11.2-9.9,4.55,1.34,6.59,3.48,6.59,3.48.41,1.69,5.11,5.84,4.62,6.41ZM599.71,412.66s0,0,0,0l.19.19c-.09-.09-.18-.19-.19-.19Z"/>
      <path class="cls-2" d="M469.62,267.36c-8.56,6.96-17.61,14.31-26.66,21.66,4.67-3.15,10.01-5.37,14.74-8.48,5.18-3.41,10.27-7.26,11.91-13.17Z"/>
      <path class="cls-2" d="M582.42,317.54c6.99,8.19,14.86,17.55,21.85,25.75.72-.62-2.19-6.89-2.7-7.59-7.06-8.13-14.45-16.34-21.51-24.47-.65.56,1.53,4.98,2.36,6.32Z"/>
      <path class="cls-2" d="M381.92,146.8c.14.18,1.9-4.02,1.54-4.32-3.55,4.14-9.71,11.7-13.26,15.85,6.6-1.56,11.63-11.09,11.72-11.53Z"/>
      <path class="cls-2" d="M91.05,446.64c6.03-.53,16.89-2.47,22.91-2.99-1.03-.54-2.07-1.08-3.1-1.62-5.05.68-10.1,1.36-15.15,2.03,0,0-4.72,2.19-4.67,2.58Z"/>
    </g>
  </g>
</svg>