<svg width="50" height="51" viewBox="0 0 50 51" fill="none" xmlns="http://www.w3.org/2000/svg">
<circle cx="25" cy="25.0951" r="25" fill="#F68E94"/>
<path d="M19.005 13.9233C19.9866 13.9233 20.87 14.0101 21.68 14.1869C22.485 14.3621 23.1716 14.6512 23.7516 15.0509C24.3233 15.4506 24.77 15.9812 25.0916 16.6478C25.4033 17.306 25.5583 18.1291 25.5583 19.1019C25.5583 20.1563 25.325 21.0373 24.8566 21.7397C24.385 22.4437 23.69 23.0203 22.7633 23.4659C24.025 23.8383 24.96 24.4897 25.58 25.4148C26.2033 26.3485 26.5083 27.4659 26.5083 28.7754C26.5083 29.8383 26.31 30.7516 25.9116 31.5186C25.5278 32.2742 24.9709 32.9241 24.2883 33.4131C23.5813 33.9155 22.7915 34.2842 21.9566 34.5016C21.0813 34.736 20.1799 34.8538 19.275 34.8519H9.33331V13.9233H19.005ZM18.42 22.3791C19.22 22.3791 19.8833 22.1852 20.4066 21.7924C20.9266 21.4046 21.1783 20.7652 21.1783 19.8893C21.1783 19.4029 21.0933 19.0016 20.9266 18.6869C20.7643 18.3843 20.524 18.1326 20.2316 17.9591C19.9257 17.7739 19.588 17.6498 19.2366 17.5934C18.8536 17.5205 18.4646 17.4858 18.075 17.4897H13.85V22.3791H18.42ZM18.6716 31.289C19.1166 31.289 19.54 31.2499 19.9383 31.158C20.34 31.0696 20.6966 30.9267 21 30.7142C21.3033 30.5101 21.5533 30.2329 21.7333 29.8791C21.915 29.5288 22.0033 29.0713 22.0033 28.522C22.0033 27.4437 21.705 26.6767 21.115 26.2125C20.5233 25.7533 19.73 25.5254 18.7583 25.5254H13.85V31.2907L18.6716 31.289ZM32.9466 31.2193C33.5583 31.8281 34.44 32.1342 35.5866 32.1342C36.4083 32.1342 37.1183 31.9216 37.7166 31.4999C38.3066 31.0764 38.6666 30.624 38.805 30.1563H42.3966C41.82 31.9795 40.945 33.2822 39.7483 34.0662C38.5666 34.8536 37.1283 35.2448 35.4483 35.2448C34.2783 35.2448 33.225 35.0526 32.2816 34.6716C31.3762 34.3118 30.558 33.756 29.8833 33.0424C29.2198 32.3122 28.7069 31.4533 28.375 30.5169C28.0102 29.4813 27.8295 28.3876 27.8416 27.2873C27.8416 26.1546 28.0266 25.0951 28.39 24.1172C28.7349 23.1719 29.2645 22.3081 29.9466 21.5781C30.6216 20.8638 31.4216 20.3009 32.3533 19.8876C33.333 19.4672 34.3872 19.2576 35.45 19.272C36.7066 19.272 37.805 19.5203 38.7483 20.0203C39.6631 20.4976 40.4563 21.1858 41.065 22.0305C41.67 22.8689 42.1017 23.8298 42.37 24.9063C42.6383 25.9812 42.7316 27.1036 42.655 28.2788H31.9366C31.9383 29.4761 32.3333 30.6104 32.9466 31.2193ZM37.6333 23.2584C37.1483 22.7108 36.3283 22.4148 35.325 22.4148C34.6733 22.4148 34.135 22.5254 33.7016 22.7533C33.3054 22.9575 32.9539 23.2415 32.6683 23.5883C32.4175 23.9031 32.2316 24.2664 32.1216 24.6563C32.0255 24.9815 31.9635 25.3161 31.9366 25.6546H38.5733C38.4766 24.5934 38.12 23.8094 37.6333 23.2584ZM31.1033 15.3281H39.4183V17.3944H31.1033V15.3281Z" fill="white"/>
</svg>
