<svg width="50" height="51" viewBox="0 0 50 51" fill="none" xmlns="http://www.w3.org/2000/svg">
<circle cx="25" cy="25.2855" r="25" fill="#F68E94"/>
<path d="M24.9984 17.9335C22.9544 17.9335 20.9942 18.762 19.5489 20.2368C18.1036 21.7115 17.2917 23.7118 17.2917 25.7974C17.2917 27.8831 18.1036 29.8833 19.5489 31.3581C20.9942 32.8328 22.9544 33.6614 24.9984 33.6614C27.0423 33.6614 29.0025 32.8328 30.4478 31.3581C31.8931 29.8833 32.705 27.8831 32.705 25.7974C32.705 23.7118 31.8931 21.7115 30.4478 20.2368C29.0025 18.762 27.0423 17.9335 24.9984 17.9335ZM24.9984 30.9046C23.6705 30.9046 22.397 30.3663 21.4581 29.4082C20.5192 28.4501 19.9917 27.1507 19.9917 25.7957C19.9917 24.4408 20.5192 23.1413 21.4581 22.1832C22.397 21.2251 23.6705 20.6869 24.9984 20.6869C26.3262 20.6869 27.5997 21.2251 28.5386 22.1832C29.4775 23.1413 30.005 24.4408 30.005 25.7957C30.005 27.1507 29.4775 28.4501 28.5386 29.4082C27.5997 30.3663 26.3262 30.9046 24.9984 30.9046Z" fill="white"/>
<path d="M33.01 19.4777C34.0023 19.4777 34.8067 18.6569 34.8067 17.6444C34.8067 16.6318 34.0023 15.811 33.01 15.811C32.0177 15.811 31.2133 16.6318 31.2133 17.6444C31.2133 18.6569 32.0177 19.4777 33.01 19.4777Z" fill="white"/>
<path d="M39.2217 15.7805C38.8359 14.7638 38.2462 13.8405 37.4906 13.0697C36.7349 12.2989 35.8299 11.6976 34.8334 11.3043C33.6673 10.8576 32.4353 10.6161 31.19 10.59C29.585 10.5186 29.0767 10.4982 25.0067 10.4982C20.9367 10.4982 20.415 10.4982 18.8234 10.59C17.579 10.6148 16.348 10.8563 15.1834 11.3043C14.1866 11.6972 13.2813 12.2983 12.5256 13.0691C11.7699 13.84 11.1804 14.7635 10.795 15.7805C10.3572 16.9703 10.121 18.2275 10.0967 19.4982C10.025 21.1342 10.0034 21.6529 10.0034 25.8077C10.0034 29.9608 10.0034 30.4897 10.0967 32.1172C10.1217 33.3893 10.3567 34.6444 10.795 35.8366C11.1815 36.8532 11.7715 37.7764 12.5274 38.5471C13.2833 39.3178 14.1885 39.9192 15.185 40.3128C16.3474 40.7774 17.579 41.0362 18.8267 41.0781C20.4317 41.1495 20.94 41.1716 25.01 41.1716C29.08 41.1716 29.6017 41.1716 31.1934 41.0781C32.4385 41.0523 33.6704 40.8113 34.8367 40.3655C35.833 39.9713 36.7377 39.3695 37.4933 38.5985C38.2489 37.8275 38.8387 36.9042 39.225 35.8876C39.6634 34.6971 39.8984 33.442 39.9234 32.1699C39.995 30.5339 40.0167 30.0152 40.0167 25.8604C40.0167 21.7057 40.0167 21.1784 39.9234 19.5509C39.904 18.2622 39.6666 16.9867 39.2217 15.7805ZM37.1917 31.9914C37.1809 32.9715 37.0056 33.9425 36.6734 34.8621C36.4231 35.5235 36.0399 36.124 35.5485 36.6252C35.0571 37.1263 34.4683 37.517 33.82 37.772C32.9287 38.1095 31.9873 38.2884 31.0367 38.3009C29.4534 38.3757 29.0067 38.3944 24.9467 38.3944C20.8834 38.3944 20.4684 38.3944 18.855 38.3009C17.9049 38.289 16.9639 38.1101 16.0734 37.772C15.4228 37.5185 14.8317 37.1286 14.3382 36.6274C13.8447 36.1261 13.4597 35.5247 13.2084 34.8621C12.8808 33.9523 12.7055 32.9928 12.69 32.0237C12.6184 30.408 12.6017 29.9523 12.6017 25.8094C12.6017 21.6648 12.6017 21.2414 12.69 19.5934C12.7008 18.6139 12.8761 17.6434 13.2084 16.7244C13.7167 15.3825 14.7584 14.3264 16.0734 13.8128C16.9643 13.4763 17.9051 13.2974 18.855 13.2839C20.44 13.2108 20.885 13.1903 24.9467 13.1903C29.0084 13.1903 29.425 13.1903 31.0367 13.2839C31.9874 13.2956 32.929 13.4745 33.82 13.8128C34.4682 14.0684 35.0569 14.4594 35.5483 14.9608C36.0397 15.4622 36.4229 16.0629 36.6734 16.7244C37.0009 17.6341 37.1762 18.5937 37.1917 19.5628C37.2634 21.1801 37.2817 21.6342 37.2817 25.7788C37.2817 29.9216 37.2817 30.3672 37.21 31.9931H37.1917V31.9914Z" fill="white"/>
</svg>
