<svg width="50" height="50" viewBox="0 0 50 50" fill="none" xmlns="http://www.w3.org/2000/svg">
<circle cx="25" cy="24.9999" r="25" fill="#F68E94"/>
<path d="M17.1059 16.5425C18.8212 16.5425 20.2117 15.1235 20.2117 13.3732C20.2117 11.6229 18.8212 10.204 17.1059 10.204C15.3905 10.204 14 11.6229 14 13.3732C14 15.1235 15.3905 16.5425 17.1059 16.5425Z" fill="white"/>
<path d="M23.1444 18.9441V36.527H28.4945V27.8319C28.4945 25.5375 28.9175 23.3155 31.7054 23.3155C34.4549 23.3155 34.489 25.9387 34.489 27.9767V36.5284H39.8419V26.886C39.8419 22.1495 38.8426 18.5095 33.4173 18.5095C30.8125 18.5095 29.0665 19.9681 28.3525 21.3485H28.2801V18.9441H23.1444ZM14.4258 18.9441H19.7844V36.527H14.4258V18.9441Z" fill="white"/>
</svg>
