<svg width="50" height="49" viewBox="0 0 50 49" fill="none" xmlns="http://www.w3.org/2000/svg">
<ellipse cx="25" cy="24.5" rx="25" ry="24.5" fill="#F59860"/>
<path d="M24.9984 17.295C22.9544 17.295 20.9942 18.1069 19.5489 19.5522C18.1036 20.9975 17.2917 22.9577 17.2917 25.0017C17.2917 27.0456 18.1036 29.0058 19.5489 30.4511C20.9942 31.8964 22.9544 32.7083 24.9984 32.7083C27.0423 32.7083 29.0025 31.8964 30.4478 30.4511C31.8931 29.0058 32.705 27.0456 32.705 25.0017C32.705 22.9577 31.8931 20.9975 30.4478 19.5522C29.0025 18.1069 27.0423 17.295 24.9984 17.295ZM24.9984 30.0067C23.6705 30.0067 22.397 29.4792 21.4581 28.5402C20.5192 27.6013 19.9917 26.3278 19.9917 25C19.9917 23.6721 20.5192 22.3987 21.4581 21.4598C22.397 20.5208 23.6705 19.9933 24.9984 19.9933C26.3262 19.9933 27.5997 20.5208 28.5386 21.4598C29.4775 22.3987 30.005 23.6721 30.005 25C30.005 26.3278 29.4775 27.6013 28.5386 28.5402C27.5997 29.4792 26.3262 30.0067 24.9984 30.0067Z" fill="white"/>
<path d="M33.01 18.8083C34.0023 18.8083 34.8067 18.0039 34.8067 17.0117C34.8067 16.0194 34.0023 15.215 33.01 15.215C32.0177 15.215 31.2133 16.0194 31.2133 17.0117C31.2133 18.0039 32.0177 18.8083 33.01 18.8083Z" fill="white"/>
<path d="M39.2217 15.185C38.8359 14.1886 38.2462 13.2838 37.4906 12.5284C36.7349 11.7731 35.8299 11.1838 34.8334 10.7983C33.6673 10.3606 32.4353 10.1239 31.19 10.0983C29.585 10.0283 29.0767 10.0083 25.0067 10.0083C20.9367 10.0083 20.415 10.0083 18.8234 10.0983C17.579 10.1226 16.348 10.3593 15.1834 10.7983C14.1866 11.1833 13.2813 11.7725 12.5256 12.5279C11.7699 13.2833 11.1804 14.1884 10.795 15.185C10.3572 16.351 10.121 17.5831 10.0967 18.8283C10.025 20.4317 10.0034 20.94 10.0034 25.0117C10.0034 29.0817 10.0034 29.6 10.0967 31.195C10.1217 32.4417 10.3567 33.6717 10.795 34.84C11.1815 35.8363 11.7715 36.741 12.5274 37.4963C13.2833 38.2516 14.1885 38.841 15.185 39.2267C16.3474 39.682 17.579 39.9356 18.8267 39.9767C20.4317 40.0467 20.94 40.0683 25.01 40.0683C29.08 40.0683 29.6017 40.0683 31.1934 39.9767C32.4385 39.9513 33.6704 39.7152 34.8367 39.2783C35.833 38.892 36.7377 38.3022 37.4933 37.5466C38.2489 36.791 38.8387 35.8863 39.225 34.89C39.6634 33.7233 39.8984 32.4933 39.9234 31.2467C39.995 29.6433 40.0167 29.135 40.0167 25.0633C40.0167 20.9917 40.0167 20.475 39.9234 18.88C39.904 17.6171 39.6666 16.3671 39.2217 15.185ZM37.1917 31.0717C37.1809 32.0322 37.0056 32.9837 36.6734 33.885C36.4231 34.5331 36.0399 35.1217 35.5485 35.6128C35.0571 36.1039 34.4683 36.4868 33.82 36.7367C32.9287 37.0674 31.9873 37.2427 31.0367 37.255C29.4534 37.3283 29.0067 37.3467 24.9467 37.3467C20.8834 37.3467 20.4684 37.3467 18.855 37.255C17.9049 37.2434 16.9639 37.068 16.0734 36.7367C15.4228 36.4883 14.8317 36.1062 14.3382 35.6149C13.8447 35.1237 13.4597 34.5344 13.2084 33.885C12.8808 32.9934 12.7055 32.0531 12.69 31.1033C12.6184 29.52 12.6017 29.0733 12.6017 25.0133C12.6017 20.9517 12.6017 20.5367 12.69 18.9217C12.7008 17.9617 12.8761 17.0107 13.2084 16.11C13.7167 14.795 14.7584 13.76 16.0734 13.2567C16.9643 12.9269 17.9051 12.7516 18.855 12.7383C20.44 12.6667 20.885 12.6467 24.9467 12.6467C29.0084 12.6467 29.425 12.6467 31.0367 12.7383C31.9874 12.7498 32.929 12.9251 33.82 13.2567C34.4682 13.5071 35.0569 13.8903 35.5483 14.3817C36.0397 14.8731 36.4229 15.4618 36.6734 16.11C37.0009 17.0016 37.1762 17.9419 37.1917 18.8917C37.2634 20.4767 37.2817 20.9217 37.2817 24.9833C37.2817 29.0433 37.2817 29.48 37.21 31.0733H37.1917V31.0717Z" fill="white"/>
</svg>
