<svg width="50" height="49" viewBox="0 0 50 49" fill="none" xmlns="http://www.w3.org/2000/svg">
<ellipse cx="25" cy="24.5" rx="25" ry="24.5" fill="#F59860"/>
<path d="M19.005 13.5517C19.9866 13.5517 20.87 13.6367 21.68 13.81C22.485 13.9817 23.1716 14.265 23.7516 14.6567C24.3233 15.0483 24.77 15.5683 25.0916 16.2217C25.4033 16.8667 25.5583 17.6733 25.5583 18.6267C25.5583 19.66 25.325 20.5233 24.8566 21.2117C24.385 21.9017 23.69 22.4667 22.7633 22.9033C24.025 23.2683 24.96 23.9067 25.58 24.8133C26.2033 25.7283 26.5083 26.8233 26.5083 28.1067C26.5083 29.1483 26.31 30.0433 25.9116 30.795C25.5278 31.5355 24.9709 32.1724 24.2883 32.6517C23.5813 33.144 22.7915 33.5053 21.9566 33.7183C21.0813 33.9481 20.1799 34.0635 19.275 34.0617H9.33331V13.5517H19.005ZM18.42 21.8383C19.22 21.8383 19.8833 21.6483 20.4066 21.2633C20.9266 20.8833 21.1783 20.2567 21.1783 19.3983C21.1783 18.9217 21.0933 18.5283 20.9266 18.22C20.7643 17.9234 20.524 17.6767 20.2316 17.5067C19.9257 17.3252 19.588 17.2036 19.2366 17.1483C18.8536 17.0769 18.4646 17.0429 18.075 17.0467H13.85V21.8383H18.42ZM18.6716 30.57C19.1166 30.57 19.54 30.5317 19.9383 30.4417C20.34 30.355 20.6966 30.215 21 30.0067C21.3033 29.8067 21.5533 29.535 21.7333 29.1883C21.915 28.845 22.0033 28.3967 22.0033 27.8583C22.0033 26.8017 21.705 26.05 21.115 25.595C20.5233 25.145 19.73 24.9217 18.7583 24.9217H13.85V30.5717L18.6716 30.57ZM32.9466 30.5017C33.5583 31.0983 34.44 31.3983 35.5866 31.3983C36.4083 31.3983 37.1183 31.19 37.7166 30.7767C38.3066 30.3617 38.6666 29.9183 38.805 29.46H42.3966C41.82 31.2467 40.945 32.5233 39.7483 33.2917C38.5666 34.0633 37.1283 34.4467 35.4483 34.4467C34.2783 34.4467 33.225 34.2583 32.2816 33.885C31.3762 33.5324 30.558 32.9877 29.8833 32.2883C29.2198 31.5727 28.7069 30.7311 28.375 29.8133C28.0102 28.7985 27.8295 27.7267 27.8416 26.6483C27.8416 25.5383 28.0266 24.5 28.39 23.5417C28.7349 22.6153 29.2645 21.7687 29.9466 21.0533C30.6216 20.3533 31.4216 19.8017 32.3533 19.3967C33.333 18.9846 34.3872 18.7792 35.45 18.7933C36.7066 18.7933 37.805 19.0367 38.7483 19.5267C39.6631 19.9944 40.4563 20.6689 41.065 21.4967C41.67 22.3183 42.1016 23.26 42.37 24.315C42.6383 25.3683 42.7316 26.4683 42.655 27.62H31.9366C31.9383 28.7933 32.3333 29.905 32.9466 30.5017ZM37.6333 22.7C37.1483 22.1633 36.3283 21.8733 35.325 21.8733C34.6733 21.8733 34.135 21.9817 33.7016 22.205C33.3054 22.4051 32.9539 22.6835 32.6683 23.0233C32.4175 23.3319 32.2316 23.6879 32.1216 24.07C32.0255 24.3886 31.9635 24.7166 31.9366 25.0483H38.5733C38.4766 24.0083 38.12 23.24 37.6333 22.7ZM31.1033 14.9283H39.4183V16.9533H31.1033V14.9283Z" fill="white"/>
</svg>
