<svg width="50" height="49" viewBox="0 0 50 49" fill="none" xmlns="http://www.w3.org/2000/svg">
<ellipse cx="25" cy="24.5" rx="25" ry="24.5" fill="#F59860"/>
<path d="M17.1059 16.2117C18.8212 16.2117 20.2117 14.8212 20.2117 13.1059C20.2117 11.3905 18.8212 10 17.1059 10C15.3905 10 14 11.3905 14 13.1059C14 14.8212 15.3905 16.2117 17.1059 16.2117Z" fill="white"/>
<path d="M23.1444 18.5652V35.7965H28.4945V27.2753C28.4945 25.0268 28.9175 22.8493 31.7054 22.8493C34.4549 22.8493 34.489 25.42 34.489 27.4172V35.7979H39.8419V26.3483C39.8419 21.7066 38.8426 18.1394 33.4173 18.1394C30.8125 18.1394 29.0665 19.5688 28.3525 20.9216H28.2801V18.5652H23.1444ZM14.4258 18.5652H19.7844V35.7965H14.4258V18.5652Z" fill="white"/>
</svg>
