<svg width="120" height="120" viewBox="0 0 120 120" fill="none" xmlns="http://www.w3.org/2000/svg">
<path d="M61.875 112.5C47.4539 112.5 33.6234 106.771 23.4261 96.5739C13.2288 86.3766 7.5 72.5461 7.5 58.125C7.5 36.0937 20.1562 16.3406 39.7523 7.81169C40.443 7.5107 41.2083 7.4247 41.9485 7.56491C42.6887 7.70511 43.3695 8.06502 43.9022 8.59774C44.435 9.13046 44.7949 9.81128 44.9351 10.5515C45.0753 11.2917 44.9893 12.057 44.6883 12.7476C42.4383 17.9133 41.25 24.5297 41.25 31.875C41.25 57.7218 62.2781 78.75 88.125 78.75C95.4703 78.75 102.087 77.5617 107.252 75.3117C107.943 75.0107 108.708 74.9247 109.448 75.0649C110.189 75.2051 110.87 75.565 111.402 76.0977C111.935 76.6305 112.295 77.3113 112.435 78.0515C112.575 78.7917 112.489 79.557 112.188 80.2476C103.659 99.8437 83.9062 112.5 61.875 112.5Z" fill="#D6575D"/>
</svg>
