<svg width="120" height="120" viewBox="0 0 120 120" fill="none" xmlns="http://www.w3.org/2000/svg">
<path d="M55.4218 6.09375H65.8566V27.9119H55.4218V6.09375ZM55.4218 93.3665H65.8566V115.185H55.4218V93.3665ZM80.0918 33.8069L95.5196 18.379L102.898 25.7576L87.4704 41.1855L80.0918 33.8069ZM18.3819 95.5184L33.8097 80.0906L41.1883 87.4692L25.7605 102.897L18.3819 95.5184ZM93.3665 55.4218H115.185V65.8566H93.3665V55.4218ZM6.09375 55.4218H27.9119V65.8566H6.09375V55.4218ZM80.0927 87.4708L87.4711 80.0923L102.899 95.5201L95.5206 102.898L80.0927 87.4708ZM18.3788 25.7586L25.7574 18.38L41.1852 33.8078L33.8066 41.1862L18.3788 25.7586ZM60.6392 84.8289C55.8549 84.8289 51.1781 83.4102 47.2001 80.7522C43.2221 78.0942 40.1217 74.3163 38.2908 69.8962C36.46 65.4761 35.9809 60.6124 36.9143 55.92C37.8476 51.2277 40.1515 46.9175 43.5345 43.5345C46.9175 40.1515 51.2277 37.8476 55.92 36.9143C60.6124 35.9809 65.4761 36.46 69.8962 38.2908C74.3163 40.1217 78.0942 43.2221 80.7522 47.2001C83.4102 51.1781 84.8289 55.8549 84.8289 60.6392C84.8214 67.0524 82.2704 73.2008 77.7356 77.7356C73.2008 82.2704 67.0524 84.8214 60.6392 84.8289Z" fill="#1B1B1D"/>
</svg>
